<svg width="31" height="27" viewBox="0 0 31 27" fill="none" xmlns="http://www.w3.org/2000/svg">
<path d="M14.0665 0.519409H16.5273V2.84843H14.0665V0.519409Z" fill="white"/>
<path d="M21.4489 0.519409H23.9096V2.84843H21.4489V0.519409Z" fill="white"/>
<path d="M6.68417 0.519409H9.14495V2.84843H6.68417V0.519409Z" fill="white"/>
<path d="M28.8312 2.8484H23.9096V6.34193H21.4488V2.8484H16.5273V6.34193H14.0665V2.8484H9.14494V6.34193H6.68416V2.8484H1.7626C1.43628 2.8484 1.12333 2.97109 0.892584 3.18948C0.661841 3.40787 0.532211 3.70407 0.532211 4.01291L0.532211 24.9741C0.532211 25.2829 0.661841 25.5791 0.892584 25.7975C1.12333 26.0159 1.43628 26.1386 1.7626 26.1386H28.8312C29.1575 26.1386 29.4704 26.0159 29.7012 25.7975C29.9319 25.5791 30.0616 25.2829 30.0616 24.9741V4.01291C30.0616 3.70407 29.9319 3.40787 29.7012 3.18948C29.4704 2.97109 29.1575 2.8484 28.8312 2.8484ZM23.1946 17.7701L21.4488 16.5896V21.4806C21.4488 21.7894 21.3192 22.0856 21.0885 22.304C20.8577 22.5224 20.5448 22.6451 20.2184 22.6451H17.1425V17.987C17.1425 17.6782 17.0128 17.382 16.7821 17.1636C16.5513 16.9452 16.2384 16.8225 15.9121 16.8225H14.6817C14.3554 16.8225 14.0424 16.9452 13.8117 17.1636C13.5809 17.382 13.4513 17.6782 13.4513 17.987V22.6451H10.3753C10.049 22.6451 9.73605 22.5224 9.50531 22.304C9.27457 22.0856 9.14494 21.7894 9.14494 21.4806V16.5896L7.39932 17.7701L5.96899 15.8749L14.5817 10.0524C14.7913 9.91331 15.041 9.83871 15.2969 9.83871C15.5528 9.83871 15.8025 9.91331 16.012 10.0524L24.6248 15.8749L23.1946 17.7701Z" fill="white"/>
</svg>
