<svg width="65" height="62" viewBox="0 0 65 62" fill="none" xmlns="http://www.w3.org/2000/svg">
<path d="M32.8017 61.074C25.3823 61.0678 18.1932 58.635 12.4517 54.1875C6.71022 49.74 2.7692 43.5511 1.29601 36.6688C-0.177169 29.7866 0.908024 22.6339 4.36783 16.4221C7.82764 10.2102 13.4494 5.321 20.2812 2.58227C28.115 -0.428171 36.8859 -0.399184 44.6973 2.66296C52.5086 5.72511 58.7325 11.5743 62.023 18.9456C65.3135 26.3169 65.4061 34.6178 62.2808 42.0532C59.1555 49.4886 53.0634 55.4608 45.3221 58.6784C41.3614 60.2661 37.1029 61.0809 32.8017 61.074ZM19.911 20.9033L14.62 25.7943L32.3798 42.2089L50.1407 25.7893L44.8496 20.8984L32.3798 32.427L19.911 20.9033Z" fill="white"/>
</svg>
