<svg width="31" height="25" viewBox="0 0 31 25" fill="none" xmlns="http://www.w3.org/2000/svg">
<path d="M28.8312 0.848404H23.9096V4.34193H21.4488V0.848404H16.5273V4.34193H14.0665V0.848404H9.14494V4.34193H6.68416V0.848404H1.7626C1.43628 0.848404 1.12333 0.971093 0.892584 1.18948C0.661841 1.40787 0.532211 1.70407 0.532211 2.01291L0.532211 22.9741C0.532211 23.2829 0.661841 23.5791 0.892584 23.7975C1.12333 24.0159 1.43628 24.1386 1.7626 24.1386H28.8312C29.1575 24.1386 29.4704 24.0159 29.7012 23.7975C29.9319 23.5791 30.0616 23.2829 30.0616 22.9741V2.01291C30.0616 1.70407 29.9319 1.40787 29.7012 1.18948C29.4704 0.971093 29.1575 0.848404 28.8312 0.848404V0.848404ZM23.1946 15.7701L21.4488 14.5896V19.4806C21.4488 19.7894 21.3192 20.0856 21.0885 20.304C20.8577 20.5224 20.5448 20.6451 20.2184 20.6451H17.1425V15.987C17.1425 15.6782 17.0128 15.382 16.7821 15.1636C16.5514 14.9452 16.2384 14.8225 15.9121 14.8225H14.6817C14.3554 14.8225 14.0424 14.9452 13.8117 15.1636C13.5809 15.382 13.4513 15.6782 13.4513 15.987V20.6451H10.3753C10.049 20.6451 9.73605 20.5224 9.50531 20.304C9.27457 20.0856 9.14494 19.7894 9.14494 19.4806V14.5896L7.39932 15.7701L5.96899 13.8749L14.5817 8.05235C14.7913 7.91331 15.041 7.83871 15.2969 7.83871C15.5528 7.83871 15.8025 7.91331 16.012 8.05235L24.6248 13.8749L23.1946 15.7701Z" fill="white"/>
</svg>
